<svg xmlns="http://www.w3.org/2000/svg" viewBox="0 0 64 64"><g fill="none" fill-rule="evenodd"><g><g fill="#005F6A"><path d="M0 0h64v64H0z"></path></g><path fill="#ffffff" id="svg_5" d="m18.05114,32.30778l-8.05059,-8.05244l2.51789,-2.51789s2.0247,1.36278 3.67486,-0.28924c1.79664,-1.79664 1.2608,-4.47399 5.24345,-7.4721c2.36586,-1.78181 5.13406,-2.37142 7.7632,-2.37142c5.17855,0 9.82683,2.28798 9.82683,2.28798c-8.40101,0.83992 -11.56229,4.17177 -8.08952,7.64453l2.03211,2.03026l-6.55431,6.55431l-1.98762,-1.98576c-1.04572,-1.04572 -2.62729,-2.21938 -3.79724,-1.05129c-1.29603,1.29418 -0.06119,2.70331 -0.06119,2.70331l-2.51789,2.51975zm16.22911,-7.42946l-6.55431,6.55431l18.86195,19.60546c0.90481,0.90481 2.09145,1.35722 3.27623,1.35722c2.57723,0 4.6353,-2.09145 4.6353,-4.6353c0,-1.22928 -0.48949,-2.4085 -1.35722,-3.27808l-18.86195,-19.6036zm-6.38002,12.08515l-8.59199,8.31387c-0.42459,0.42459 -0.93262,0.75463 -1.46475,1.0346l-1.07539,0.55994l-1.90047,3.97894l1.54448,1.54448l3.8955,-1.98391l0.55809,-1.07539c0.27997,-0.53028 0.64338,-1.01049 1.06426,-1.43509l8.54193,-8.26381l-2.57166,-2.67364zm11.39912,-12.21679l7.25702,-7.16988c0.31335,-0.3152 0.82137,-0.31149 1.13287,0c0.31335,0.3152 0.31335,0.81952 0.00185,1.13287l-7.27927,7.19213l1.61679,1.68169l7.31079,-7.22365c0.31149,-0.31335 0.81767,-0.31149 1.13287,0.00185c0.31149,0.31149 0.31335,0.81767 0,1.12916l-7.3349,7.24775l1.88749,1.96166l7.85405,-7.7632c1.08095,-1.0791 1.6205,-2.49564 1.6205,-3.91219c0,-1.42396 -0.54326,-2.84978 -1.63162,-3.94c-1.08466,-1.08466 -2.50306,-1.62606 -3.91961,-1.62606c-1.42026,0 -2.8368,0.54326 -3.91961,1.62606l-7.70201,7.61116l1.97278,2.05066z"></path></g></g></svg>